<svg width="1080" height="415" viewBox="0 0 1080 415" fill="none" xmlns="http://www.w3.org/2000/svg">
<path d="M576 19C579.009 20.338 580.984 21.7758 583.207 24.1953C583.79 24.8248 584.373 25.4542 584.974 26.1028C585.884 27.1038 585.884 27.1038 586.812 28.125C587.755 29.1482 587.755 29.1482 588.716 30.1921C592.319 34.1183 595.885 38.0748 599.363 42.1133C601.379 44.4366 603.438 46.7175 605.5 49C608.19 51.9806 610.863 54.9725 613.5 58C617.611 62.717 621.807 67.3564 626 72C630.768 77.2799 635.515 82.5729 640.188 87.9375C642.272 90.3096 644.384 92.6556 646.5 95C647.627 96.253 647.627 96.253 648.777 97.5312C650.224 99.1385 651.675 100.743 653.129 102.344C653.767 103.055 654.405 103.767 655.062 104.5C655.915 105.444 655.915 105.444 656.785 106.406C658 108 658 108 658 110C652.959 110.371 647.93 110.58 642.875 110.484C642.04 110.471 641.204 110.458 640.344 110.444C637.427 109.891 636.065 108.783 633.938 106.75C632.948 105.173 631.97 103.589 631 102C629.236 100.003 627.457 98.0566 625.625 96.125C624.667 95.0877 623.712 94.0486 622.758 93.0078C622.291 92.5002 621.825 91.9927 621.345 91.4697C618.652 88.5268 615.995 85.5519 613.332 82.582C611.609 80.6745 609.879 78.7767 608.137 76.8867C607.647 76.355 607.157 75.8232 606.652 75.2754C605.263 73.7695 603.872 72.2656 602.48 70.7617C600.218 68.2425 598.084 65.6674 596 63C593.101 64.2926 591.234 65.5649 589.188 67.9844C588.676 68.5826 588.164 69.1808 587.636 69.7971C587.096 70.4416 586.556 71.086 586 71.75C585.43 72.4196 584.859 73.0892 584.272 73.7791C583.088 75.17 581.906 76.5631 580.727 77.9585C578.635 80.432 576.524 82.8899 574.412 85.3467C572.927 87.0742 571.446 88.8043 569.965 90.5352C566.979 94.0253 563.99 97.5129 561 101C560 102.167 559 103.333 558 104.5C480 195.5 480 195.5 478.498 197.252C477.504 198.412 476.51 199.572 475.515 200.732C472.929 203.75 470.343 206.766 467.754 209.781C466.952 210.715 466.952 210.715 466.135 211.668C465.122 212.848 464.109 214.028 463.096 215.207C462.632 215.747 462.169 216.287 461.691 216.844C461.091 217.543 461.091 217.543 460.479 218.256C458.798 220.136 458.798 220.136 457.155 223.161C455.259 225.414 454.242 225.953 451.312 226.524C447.801 226.696 444.338 226.673 440.824 226.586C439.544 226.577 438.264 226.569 436.945 226.56C433.552 226.537 430.162 226.479 426.77 226.412C423.305 226.35 419.839 226.323 416.373 226.293C409.581 226.227 402.791 226.126 396 226C396.938 224.733 397.878 223.467 398.819 222.202C399.604 221.145 399.604 221.145 400.405 220.066C402.697 217.097 405.225 214.398 407.812 211.688C412.34 206.868 416.582 201.905 420.723 196.746C423.218 193.737 425.838 190.861 428.5 188C431.974 184.267 435.301 180.476 438.5 176.5C442.136 171.981 445.968 167.72 449.916 163.478C452.887 160.267 455.7 156.974 458.438 153.562C462.28 148.785 466.368 144.31 470.556 139.838C474.479 135.626 478.119 131.236 481.723 126.746C484.218 123.737 486.838 120.861 489.5 118C492.974 114.267 496.301 110.476 499.5 106.5C503.135 101.982 506.967 97.7218 510.914 93.4805C513.904 90.2479 516.738 86.9329 519.5 83.5C523.136 78.9814 526.968 74.7202 530.916 70.4783C533.887 67.267 536.7 63.9737 539.438 60.5625C543.28 55.7846 547.368 51.3101 551.556 46.8384C555.466 42.6393 559.096 38.2649 562.688 33.7891C566.924 28.6797 571.472 23.85 576 19Z" fill="#82B083"/>
<path d="M436 17C438.896 18.3002 440.852 19.6351 442.988 21.9766C443.526 22.5605 444.064 23.1445 444.617 23.7461C445.177 24.3661 445.736 24.9862 446.312 25.625C447.187 26.5821 447.187 26.5821 448.08 27.5586C453.052 33.0136 457.916 38.5506 462.699 44.1719C467.654 49.9864 472.631 55.7605 477.812 61.375C478.268 61.8686 478.724 62.3623 479.193 62.8708C479.633 63.3479 480.074 63.8249 480.527 64.3164C485.75 69.9848 490.631 75.6445 495 82C492.03 85.3 489.06 88.6 486 92C481.598 88.4065 477.775 84.7492 474.102 80.4219C470.86 76.6861 467.47 73.0886 464.087 69.4802C461.84 67.067 459.834 64.7504 458 62C454.185 63.514 452.369 65.73 449.875 68.9375C446.705 72.9239 443.456 76.7585 440 80.5C436.707 84.0779 433.553 87.7154 430.5 91.5C426.663 96.256 422.606 100.755 418.469 105.25C416.056 107.937 413.767 110.69 411.5 113.5C407.663 118.256 403.606 122.755 399.469 127.25C397.056 129.937 394.767 132.69 392.5 135.5C388.663 140.256 384.606 144.755 380.469 149.25C378.056 151.937 375.767 154.69 373.5 157.5C369.662 162.257 365.604 166.758 361.465 171.254C359.073 173.919 356.807 176.648 354.562 179.438C350.905 183.972 347.054 188.255 343.088 192.517C339.29 196.623 335.766 200.913 332.258 205.27C329.119 209.065 325.801 212.682 322.457 216.297C320.088 218.74 320.088 218.74 318.899 220.771C316.745 223.968 315.137 225.741 311.299 226.615C307.901 226.811 304.567 226.787 301.164 226.684C299.93 226.674 298.695 226.664 297.423 226.654C293.489 226.614 289.558 226.527 285.625 226.438C282.954 226.398 280.284 226.37 277.613 226.342C271.075 226.265 264.537 226.148 258 226C259.618 222.592 261.478 220.205 264.062 217.438C267.311 213.898 270.425 210.304 273.438 206.562C277.297 201.79 281.372 197.269 285.527 192.754C288.747 189.168 291.759 185.433 294.785 181.684C296.956 179.053 299.202 176.521 301.5 174C304.615 170.583 307.592 167.095 310.5 163.5C314.11 159.037 317.884 154.773 321.75 150.531C324.079 147.912 326.296 145.225 328.5 142.5C332.11 138.037 335.884 133.773 339.75 129.531C342.079 126.912 344.296 124.225 346.5 121.5C350.11 117.037 353.884 112.773 357.75 108.531C360.079 105.912 362.296 103.225 364.5 100.5C368.11 96.0372 371.884 91.7728 375.75 87.5312C378.079 84.9116 380.296 82.2248 382.5 79.5C386.111 75.0358 389.887 70.77 393.754 66.5273C396.062 63.9304 398.256 61.266 400.438 58.5625C403.513 54.7591 406.688 51.0992 410 47.5C414.024 43.1234 417.817 38.6171 421.551 33.9922C426.261 28.2384 431.143 22.6295 436 17Z" fill="#82B083"/>
<path d="M735 284C735.33 287.63 735.66 291.26 736 295C737.176 293.907 738.351 292.814 739.562 291.688C746.012 286.127 751.464 284.402 759.934 284.656C766.765 285.422 772.076 287.51 776.625 292.75C777.437 293.818 778.237 294.896 779 296C779.424 295.613 779.848 295.227 780.285 294.828C788.284 287.726 795.257 284.518 806.086 284.664C811.965 285.342 816.827 287.73 820.922 292.008C824.769 296.972 826.118 300.611 826.174 306.937C826.187 308.158 826.201 309.38 826.214 310.639C826.22 311.291 826.225 311.944 826.23 312.616C826.246 314.664 826.269 316.711 826.295 318.759C826.365 324.58 826.425 330.401 826.477 336.223C826.509 339.786 826.55 343.349 826.597 346.912C826.621 348.923 826.634 350.934 826.647 352.944C826.663 354.175 826.68 355.407 826.697 356.675C826.712 358.294 826.712 358.294 826.728 359.945C826.932 363.565 826.932 363.565 829 369C819.43 369 809.86 369 800 369C800.66 366.69 801.32 364.38 802 362C802.302 358.895 802.302 358.895 802.275 355.745C802.284 354.554 802.294 353.363 802.304 352.136C802.303 350.869 802.302 349.602 802.301 348.297C802.307 346.325 802.307 346.325 802.314 344.313C802.321 341.542 802.321 338.772 802.316 336.002C802.31 332.452 802.327 328.903 802.35 325.353C802.368 321.959 802.365 318.566 802.363 315.172C802.372 313.897 802.382 312.622 802.391 311.308C802.382 309.541 802.382 309.541 802.372 307.737C802.373 306.699 802.374 305.661 802.374 304.591C802.207 301.981 802.207 301.981 800.664 300.204C796.993 297.548 793.37 297.63 789 298C785.296 300.027 783.346 301.48 781 305C780.703 307.605 780.703 307.605 780.757 310.57C780.754 311.711 780.751 312.853 780.748 314.029C780.755 315.263 780.762 316.498 780.77 317.77C780.77 319.038 780.77 320.307 780.771 321.615C780.774 324.302 780.781 326.989 780.794 329.677C780.811 333.11 780.815 336.543 780.814 339.976C780.815 343.261 780.823 346.547 780.832 349.832C780.833 351.06 780.834 352.289 780.835 353.554C780.842 354.705 780.848 355.856 780.855 357.042C780.859 358.05 780.862 359.058 780.866 360.097C780.967 363.535 780.967 363.535 782 369C773.42 369 764.84 369 756 369C756.33 366.69 756.66 364.38 757 362C757.085 359.947 757.128 357.892 757.129 355.837C757.134 354.08 757.134 354.08 757.139 352.288C757.137 351.043 757.135 349.798 757.133 348.516C757.134 347.223 757.135 345.931 757.136 344.599C757.137 341.876 757.135 339.152 757.13 336.429C757.125 332.94 757.128 329.451 757.134 325.962C757.138 322.625 757.135 319.289 757.133 315.953C757.135 314.7 757.137 313.447 757.139 312.156C757.136 310.997 757.133 309.839 757.129 308.646C757.129 307.625 757.128 306.605 757.127 305.554C757.109 302.878 757.109 302.878 756 300C751.906 298.468 747.297 298.432 743 299C739.664 301.058 738.174 302.739 736 306C735.696 308.421 735.696 308.421 735.741 311.155C735.735 312.207 735.729 313.258 735.722 314.342C735.726 315.48 735.73 316.617 735.734 317.789C735.732 318.962 735.731 320.135 735.729 321.344C735.727 323.83 735.731 326.317 735.739 328.803C735.75 332.589 735.739 336.374 735.727 340.16C735.728 342.578 735.73 344.996 735.734 347.414C735.73 348.539 735.726 349.665 735.722 350.824C735.728 351.895 735.735 352.966 735.741 354.069C735.743 354.999 735.744 355.929 735.746 356.888C736.08 360.981 737.109 364.991 738 369C728.43 369 718.86 369 709 369C709.66 366.03 710.32 363.06 711 360C711.293 356.617 711.293 356.617 711.259 353.338C711.265 352.106 711.271 350.875 711.278 349.606C711.274 348.302 711.27 346.999 711.266 345.656C711.267 344.278 711.269 342.9 711.271 341.522C711.274 338.648 711.27 335.773 711.261 332.899C711.249 329.238 711.256 325.577 711.268 321.915C711.275 319.074 711.273 316.232 711.268 313.391C711.266 311.392 711.272 309.393 711.278 307.394C711.243 300.607 710.789 294.555 709 288C710.845 287.818 710.845 287.818 712.727 287.633C714.359 287.464 715.992 287.295 717.625 287.125C718.837 287.007 718.837 287.007 720.074 286.887C725.067 286.359 730.161 284 735 284Z" fill="#F7F9F4"/>
<path d="M370 258C380.56 258 391.12 258 402 258C401.34 260.64 400.68 263.28 400 266C399.69 268.494 399.69 268.494 399.681 270.764C399.661 271.604 399.641 272.444 399.621 273.31C399.604 274.626 399.604 274.626 399.586 275.969C399.567 276.89 399.547 277.811 399.527 278.759C399.468 281.673 399.421 284.586 399.375 287.5C399.337 289.487 399.298 291.474 399.258 293.461C399.162 298.307 399.078 303.153 399 308C400.601 307.262 402.194 306.509 403.785 305.75C404.673 305.332 405.562 304.915 406.477 304.484C416.497 298.589 422.111 282.149 427 272C427.537 270.895 427.537 270.895 428.085 269.767C429.42 266.05 429.42 266.05 430 258C441.22 258 452.44 258 464 258C462.02 260.64 460.04 263.28 458 266C456.97 267.54 455.962 269.094 454.992 270.672C454.486 271.492 453.979 272.311 453.457 273.156C452.935 274.012 452.413 274.868 451.875 275.75C451.324 276.653 450.773 277.556 450.205 278.487C449.054 280.373 447.905 282.26 446.756 284.147C445.008 286.987 443.219 289.798 441.418 292.605C440.299 294.383 439.181 296.16 438.062 297.938C437.255 299.17 437.255 299.17 436.431 300.427C435.95 301.202 435.469 301.978 434.973 302.777C434.542 303.45 434.112 304.123 433.668 304.816C432.055 310.089 436.272 315.812 438.633 320.461C438.988 321.169 439.344 321.877 439.71 322.607C440.845 324.865 441.985 327.12 443.125 329.375C444.238 331.585 445.349 333.796 446.461 336.007C447.201 337.477 447.942 338.945 448.685 340.413C450.541 344.081 452.374 347.757 454.163 351.458C454.688 352.535 454.688 352.535 455.223 353.633C455.878 354.979 456.527 356.328 457.168 357.68C459.38 362.205 461.625 364.951 465 369C453.78 369 442.56 369 431 369C430.01 364.05 430.01 364.05 429 359C427.018 353.51 424.528 348.257 422 343C421.602 342.17 421.203 341.341 420.792 340.486C419.531 337.895 418.241 335.32 416.938 332.75C416.539 331.94 416.14 331.13 415.729 330.295C413.216 325.462 411.067 322.455 406 320C403.673 319.626 401.339 319.287 399 319C399.069 324.514 399.158 330.027 399.262 335.541C399.295 337.412 399.324 339.284 399.346 341.156C399.38 343.862 399.433 346.568 399.488 349.273C399.495 350.097 399.501 350.92 399.508 351.768C399.669 358.301 401.001 362.337 403 369C392.11 369 381.22 369 370 369C370.66 366.69 371.32 364.38 372 362C372.289 359.647 372.289 359.647 372.254 357.433C372.26 356.598 372.265 355.763 372.271 354.902C372.267 354.009 372.263 353.117 372.259 352.197C372.262 351.238 372.266 350.28 372.269 349.292C372.278 346.14 372.272 342.988 372.266 339.836C372.267 337.638 372.269 335.441 372.271 333.243C372.274 328.645 372.27 324.047 372.261 319.449C372.249 313.557 372.256 307.664 372.268 301.772C372.275 297.237 372.273 292.703 372.268 288.168C372.266 285.995 372.268 283.822 372.273 281.649C372.278 278.614 372.27 275.579 372.259 272.544C372.263 271.648 372.267 270.751 372.271 269.827C372.265 268.997 372.26 268.167 372.254 267.313C372.253 266.596 372.252 265.88 372.252 265.142C372.029 262.442 372.029 262.442 370 258Z" fill="#F5F8F3"/>
<path d="M493 250C493.33 265.18 493.66 280.36 494 296C495.65 294.35 497.3 292.7 499 291C506.673 285.286 513.579 284.052 523 285C529.804 286.656 534.167 289.13 538 295C539.859 298.866 540.263 301.981 540.303 306.256C540.32 307.497 540.336 308.739 540.353 310.018C540.362 311.365 540.37 312.712 540.379 314.059C540.395 315.45 540.412 316.841 540.43 318.231C540.476 321.887 540.511 325.542 540.543 329.198C540.595 335.045 540.66 340.891 540.731 346.738C540.754 348.773 540.77 350.808 540.786 352.843C540.799 354.088 540.813 355.333 540.826 356.615C540.836 357.706 540.845 358.797 540.855 359.92C540.963 363.506 540.963 363.506 542 369C532.76 369 523.52 369 514 369C514.66 367.02 515.32 365.04 516 363C516.317 360.009 516.317 360.009 516.306 356.89C516.322 355.706 516.338 354.521 516.355 353.301C516.36 352.035 516.366 350.769 516.371 349.465C516.38 348.153 516.389 346.842 516.398 345.491C516.415 342.723 516.423 339.955 516.426 337.187C516.431 333.647 516.469 330.108 516.514 326.569C516.551 323.18 516.553 319.791 516.559 316.402C516.578 315.135 516.598 313.867 516.618 312.561C516.844 305.57 516.844 305.57 513.645 299.698C510.326 297.568 508.881 297.302 505 298C500.006 300.153 497.571 301.878 494.861 306.754C493.104 311.336 493.476 316.188 493.539 321.031C493.54 322.181 493.541 323.331 493.542 324.516C493.548 326.94 493.564 329.364 493.588 331.788C493.625 335.488 493.629 339.187 493.629 342.887C493.639 345.247 493.65 347.608 493.664 349.969C493.666 351.07 493.669 352.171 493.671 353.306C493.69 354.863 493.69 354.863 493.709 356.451C493.717 357.356 493.725 358.261 493.733 359.193C493.986 362.756 493.986 362.756 496 369C486.76 369 477.52 369 468 369C468.33 367.02 468.66 365.04 469 363C469.083 361.471 469.126 359.94 469.127 358.409C469.13 357.542 469.133 356.676 469.136 355.784C469.134 354.851 469.131 353.919 469.129 352.959C469.131 351.963 469.133 350.967 469.135 349.941C469.139 346.659 469.136 343.376 469.133 340.094C469.133 337.807 469.134 335.521 469.136 333.235C469.137 328.447 469.135 323.659 469.13 318.871C469.125 312.737 469.128 306.604 469.134 300.471C469.138 295.75 469.136 291.03 469.134 286.31C469.133 284.049 469.134 281.788 469.136 279.526C469.139 276.364 469.135 273.203 469.129 270.041C469.131 269.109 469.133 268.177 469.136 267.216C469.121 262.696 468.922 258.449 468 254C469.025 253.879 470.05 253.758 471.105 253.633C472.466 253.464 473.827 253.295 475.188 253.125C475.861 253.046 476.535 252.968 477.229 252.887C480.216 252.508 482.873 252.051 485.676 250.93C488 250 488 250 493 250Z" fill="#F8FAF5"/>
<path d="M625 287C634.24 287 643.48 287 653 287C653.412 289.372 653.825 291.744 654.25 294.188C657.05 309.358 662.662 323.574 668 338C671.146 330.45 673.905 322.781 676.519 315.032C676.965 313.719 677.416 312.408 677.872 311.098C678.545 309.164 679.202 307.226 679.855 305.285C680.244 304.15 680.632 303.014 681.032 301.844C682.39 296.873 682.39 296.873 683 287C690.92 287 698.84 287 707 287C705.486 290.786 703.903 294.108 701.996 297.68C696.332 308.712 692.359 320.515 688.062 332.125C686.348 336.733 684.63 341.34 682.91 345.945C682.494 347.059 682.079 348.172 681.65 349.319C679.024 356.328 676.348 363.315 673.582 370.27C673.268 371.065 672.953 371.86 672.629 372.68C670.006 379.211 667.018 385.192 663 391C662.343 392.045 661.685 393.091 661.008 394.168C655.667 401.459 655.667 401.459 650.692 402.468C645.086 402.94 639.587 402.568 634 402C634.387 401.553 634.775 401.107 635.174 400.647C649.976 383.862 649.976 383.862 655 363C654.178 359.879 653.049 356.903 651.887 353.895C651.398 352.59 651.398 352.59 650.9 351.259C649.84 348.439 648.765 345.626 647.688 342.812C646.954 340.874 646.221 338.935 645.49 336.996C643.344 331.324 641.174 325.661 639 320C638.404 318.442 637.807 316.884 637.211 315.327C635.714 311.422 634.204 307.522 632.688 303.625C632.251 302.499 631.814 301.374 631.364 300.214C630.959 299.187 630.554 298.16 630.137 297.102C629.793 296.228 629.45 295.355 629.096 294.456C627.834 291.497 627.834 291.497 625 287Z" fill="#F5F8F3"/>
<path d="M286 74C305.47 74 324.94 74 345 74C345 94.6372 345 94.6372 337.833 102.454C337.328 102.919 336.822 103.384 336.301 103.863C333.319 106.681 330.551 109.63 327.812 112.688C327.002 113.571 326.191 114.454 325.355 115.363C323.024 117.973 320.817 120.648 318.625 123.375C315.236 127.578 311.688 131.562 308 135.5C302.731 141.129 297.833 146.992 293 153C291.037 155.373 289.047 157.697 287 160C286.67 160 286.34 160 286 160C286 131.62 286 103.24 286 74Z" fill="#82B183"/>
<path d="M303 249C303.003 249.576 303.007 250.152 303.01 250.745C303.091 264.776 303.183 278.807 303.288 292.837C303.338 299.623 303.384 306.408 303.422 313.193C303.458 319.742 303.505 326.291 303.558 332.839C303.577 335.337 303.592 337.835 303.603 340.333C303.62 343.833 303.649 347.332 303.681 350.832C303.683 351.864 303.685 352.895 303.688 353.958C303.699 354.918 303.71 355.879 303.722 356.868C303.727 357.695 303.733 358.522 303.738 359.374C303.999 362.784 303.999 362.784 306 369C296.43 369 286.86 369 277 369C277.66 366.69 278.32 364.38 279 362C279.287 359.659 279.287 359.659 279.247 357.46C279.251 356.631 279.256 355.801 279.26 354.946C279.254 354.06 279.249 353.174 279.243 352.26C279.245 351.308 279.247 350.356 279.249 349.375C279.252 346.242 279.242 343.109 279.23 339.977C279.229 337.789 279.229 335.6 279.229 333.412C279.228 328.831 279.219 324.25 279.206 319.669C279.189 313.813 279.185 307.957 279.186 302.1C279.185 297.583 279.18 293.065 279.173 288.547C279.17 286.389 279.168 284.23 279.167 282.072C279.165 279.047 279.156 276.023 279.145 272.999C279.146 271.675 279.146 271.675 279.147 270.325C279.118 264.812 278.693 259.47 278 254C278.906 253.89 279.812 253.781 280.746 253.668C287.837 252.745 296.132 249 303 249Z" fill="#F8FAF5"/>
<path d="M760 162C760.495 169.92 760.495 169.92 761 178C762.32 176.02 763.64 174.04 765 172C769.463 167.351 773.846 163.234 780.492 162.859C783.014 162.817 785.486 162.8 788 163C788.495 163.495 788.495 163.495 789 164C788.952 170.859 787.719 176.734 785 183C784.031 182.67 783.061 182.34 782.062 182C777.689 180.798 773.491 180.067 769 181C765.627 183.052 762.78 185.441 761 189C760.9 190.591 760.862 192.187 760.855 193.782C760.848 194.777 760.842 195.772 760.835 196.797C760.834 197.877 760.833 198.957 760.832 200.07C760.829 201.181 760.825 202.291 760.822 203.435C760.817 205.79 760.815 208.145 760.815 210.501C760.813 214.089 760.794 217.677 760.775 221.266C760.772 223.555 760.77 225.844 760.77 228.133C760.762 229.201 760.755 230.269 760.748 231.369C760.751 232.383 760.754 233.397 760.757 234.442C760.756 235.324 760.754 236.206 760.753 237.115C761 240.901 761 240.901 763 248C753.43 248 743.86 248 734 248C734.66 244.7 735.32 241.4 736 238C736.158 235.71 736.246 233.413 736.243 231.117C736.246 229.862 736.249 228.607 736.252 227.314C736.245 225.978 736.238 224.641 736.23 223.305C736.229 221.903 736.229 220.502 736.229 219.1C736.228 216.181 736.219 213.261 736.206 210.341C736.189 206.618 736.185 202.896 736.186 199.173C736.185 196.285 736.18 193.397 736.173 190.509C736.17 189.137 736.168 187.765 736.167 186.393C736.159 179.512 736.075 172.804 735 166C736.611 165.818 736.611 165.818 738.254 165.633C739.69 165.464 741.126 165.295 742.562 165.125C743.267 165.046 743.971 164.968 744.697 164.887C749.738 164.283 755.045 162 760 162Z" fill="#F6F8F3"/>
<path d="M577.482 135.623C595.952 135.166 612.826 138.156 626.75 151.25C638.651 163.843 642.747 180.015 642.406 197.015C641.612 211.514 634.558 226.591 623.926 236.445C609.582 248.024 594.784 248.565 577.188 248.25C575.223 248.229 573.259 248.211 571.295 248.195C566.529 248.151 561.765 248.082 557 248C557.325 246.879 557.649 245.757 557.983 244.602C559.172 239.818 559.282 235.269 559.259 230.359C559.262 229.429 559.266 228.499 559.27 227.542C559.278 224.492 559.272 221.443 559.266 218.394C559.267 216.265 559.269 214.136 559.271 212.007C559.274 207.557 559.27 203.106 559.261 198.656C559.249 192.953 559.256 187.249 559.268 181.546C559.275 177.155 559.273 172.764 559.268 168.373C559.266 166.27 559.268 164.166 559.272 162.063C559.278 159.126 559.27 156.19 559.259 153.254C559.263 152.386 559.267 151.519 559.271 150.626C559.241 146.238 558.884 143.039 557 139V136C562.1 135.874 567.2 135.785 572.302 135.725C574.029 135.7 575.756 135.667 577.482 135.623ZM602.078 161.73C593.145 158.59 586.206 163.184 581.871 170.773C580.006 175.541 580.408 180.223 582 185L584.562 187.5C587.556 192.725 587.556 192.725 587.242 198.937L587 202C586.837 204.187 586.67 206.375 586.5 208.562C586 213.902 586 213.903 586 225H609C609 222.772 609 222.772 608.543 217.894C608.443 216.839 608.442 216.839 608.344 215.804C608.136 213.595 607.928 211.386 607.719 209.177C607.573 207.639 607.427 206.1 607.282 204.562C606.947 201.01 606.612 197.458 606.275 193.906C606.182 192.918 606.091 191.958 606 191H608C610.625 188.125 610.625 188.125 611.953 186.207C614.317 181.223 613.598 175.164 612 170C609.397 165.835 606.462 163.719 602.078 161.73Z" fill="#F5F8F3"/>
<path d="M850 288C865.175 282.625 887.431 281.806 900.45 292.492C905.171 297.087 906.25 302.183 906.53 308.52C906.565 311.069 906.578 313.618 906.574 316.168C906.587 317.534 906.601 318.902 906.617 320.268C906.655 323.845 906.67 327.422 906.68 330.999C906.699 336.733 906.757 342.467 906.809 348.202C906.824 350.196 906.83 352.191 906.837 354.186C906.847 356.008 906.848 356.009 906.858 357.868C906.862 358.934 906.866 360.001 906.869 361.099C906.993 363.839 907.381 366.332 908 369C904.187 369.028 900.375 369.046 896.562 369.062L893.264 369.087L890.129 369.097C889.171 369.102 888.212 369.108 887.225 369.114C885 369 885 369 884 368C883.632 365.672 883.298 363.338 883 361L880.125 363.75C873.18 369.622 865.879 371.731 856.832 371.382C851.164 370.616 846.999 368.375 843.125 364.187C838.973 357.96 838.09 351.334 839 344C841.183 336.613 846.076 332.288 852.559 328.507C856.998 326.182 861.474 324.153 866.191 322.464C866.906 322.209 867.62 321.953 868.355 321.689C869.754 321.199 871.158 320.724 872.568 320.267C877.068 318.714 879.508 317.076 882 313C882.55 309.15 882.89 306.66 881.047 303.222C878.439 299.847 875.983 298.279 872 297C864.426 296.066 858.179 297.203 851.18 300.125C849 301 849 301 847 301L848.465 292.601C849 290 849 289.999 850 288ZM883 326C875.507 326 868.239 329.9 863.59 335.785C860.502 340.248 859.177 343.447 860 349C861.813 354.137 864.107 356.599 869 359C873.404 359.861 876.085 359.476 880.097 357.387C883 355 883 354.999 883.682 351.883C883.634 350.057 883.633 350.056 883.586 348.265C883.556 346.279 883.526 344.293 883.453 342.308C883.401 340.929 883.36 339.55 883.33 338.17C883.258 334.112 883.149 330.056 883 326Z" fill="#F5F8F3"/>
<path d="M563 288C577.184 284.055 594.548 281.699 608 289L610.07 290.098C614.735 292.977 617.329 296.79 619 302C619.58 306.724 619.581 311.413 619.574 316.168C619.587 317.535 619.601 318.901 619.617 320.268C619.655 323.845 619.67 327.422 619.68 330.999C619.699 336.733 619.757 342.468 619.809 348.202C619.824 350.197 619.831 352.191 619.837 354.186C619.847 356.008 619.848 356.009 619.858 357.868C619.862 358.934 619.866 360 619.869 361.099C619.993 363.839 620.381 366.332 621 369C617.187 369.029 613.375 369.047 609.562 369.063L606.264 369.088L603.129 369.098C602.171 369.103 601.212 369.108 600.225 369.113C598 369 598 369 597 368C596.632 365.672 596.298 363.338 596 361L593.125 363.75C586.18 369.623 578.879 371.731 569.832 371.383C564.164 370.617 559.999 368.376 556.125 364.188C551.973 357.96 551.09 351.335 552 344C554.183 336.613 559.076 332.289 565.559 328.508C569.998 326.183 574.474 324.154 579.191 322.465C579.906 322.209 580.62 321.953 581.355 321.689C582.754 321.199 584.158 320.724 585.568 320.268C590.056 318.718 592.573 317.117 595 313C595.606 308.574 594.508 304.853 592.25 301.063C587.465 296.676 582.447 296.587 576.219 296.664C571.878 297.117 568.189 298.452 564.18 300.125C562 301 562 301 560 301L561.465 294.359C561.948 292.231 562.462 290.115 563 288ZM596 326C588.506 326 581.239 329.9 576.59 335.785C573.502 340.249 572.177 343.447 573 349C574.813 354.137 577.107 356.6 582 359C586.404 359.861 589.085 359.477 593.097 357.388C596 355 596 355 596.682 351.884C596.634 350.057 596.633 350.057 596.586 348.266C596.556 346.28 596.526 344.293 596.453 342.308C596.401 340.929 596.36 339.549 596.33 338.17C596.258 334.112 596.149 330.056 596 326Z" fill="#F5F8F3"/>
<path d="M662 166C677.842 160.944 698.381 159.87 712.211 170.11C718.838 177.113 718.575 183.725 718.539 193C718.549 194.363 718.561 195.727 718.575 197.09C718.607 200.665 718.618 204.239 718.622 207.814C718.631 213.534 718.666 219.253 718.714 224.973C718.726 226.96 718.725 228.947 718.724 230.934C718.731 232.152 718.738 233.37 718.745 234.625C718.746 235.69 718.747 236.755 718.748 237.852C718.952 241.703 718.952 241.704 721 248H697L695 240L693.531 241.207C684.643 248.232 677.406 250.036 666 249C660.737 247.953 657.6 244.92 654.262 240.914C650.342 234.968 650.18 228.919 651 222C653.408 214.067 659.15 210.113 666 206C670.049 204.063 674.186 202.421 678.375 200.813C680.491 199.995 682.603 199.169 684.711 198.332C685.632 197.979 686.553 197.625 687.502 197.261C690.272 195.863 691.987 194.348 694 192C694.976 188.298 694.816 184.581 693.047 181.153C689.891 177.088 686.515 175.337 681.492 174.664C674.246 174.556 668.64 176.207 662 179L659 180C659.715 175.237 660.795 170.658 662 166ZM695 204C686.63 204 679.688 209.287 674.508 215.422C671.946 219.802 672.06 224.106 673 229C674.614 232.856 676.335 234.862 680 237C684.734 237.779 688.463 237.944 692.626 235.388C695 233 695 233 695.567 229.884C695.54 228.654 695.514 227.46 695.488 226.266C695.464 224.28 695.438 222.293 695.377 220.308C695.334 218.929 695.3 217.549 695.274 216.17C695.214 212.112 695.124 208.057 695 204Z" fill="#F4F7F2"/>
<path d="M239.75 267.062C241.33 275.042 243.175 282.885 245.371 290.72C246.122 293.441 246.842 296.169 247.562 298.898C251.166 312.524 254.988 326.058 259.216 339.504C259.713 341.086 260.207 342.669 260.695 344.254C261.307 346.235 261.932 348.212 262.562 350.188L263.566 353.355C265.68 358.728 268.418 363.836 271 369H239L238 355C237.117 350.478 237.117 350.478 235.938 346.625L234 340H204L202.062 347.188C201.863 347.904 201.663 348.622 201.457 349.36C199.713 356.091 199.56 361.719 199 369H170C171.179 366.643 172.381 364.296 173.638 361.979C180.077 349.894 184.381 337.197 188.75 324.25C189.536 321.947 190.323 319.644 191.111 317.342C193.425 310.567 195.716 303.785 198 297C198.334 296.007 198.669 295.014 199.014 293.991C202.711 283.006 206.372 272.009 210 261L211 258H238L239.75 267.062ZM221 279C219.881 282.608 218.77 286.218 217.664 289.83C217.438 290.568 217.219 291.284 217 292C213.752 302.615 210.559 313.195 208 324H232C232 321 232 321 231.451 318.382C230.323 313.708 229.22 309.033 228.223 304.33C227.965 303.076 227.715 301.858 227.465 300.641C226.955 298.177 226.446 295.714 225.938 293.25L225.162 289.406L224.402 285.766C223.73 282.478 223.73 282.478 223 280L221 279Z" fill="#F6F8F3"/>
</svg>
